{
  "source": "C:\\Users\\Peter\\Desktop\\stuff\\MIUN\\quantitative_research\\video_compression\\videos\\BVI-HD\\BVI-HD_CDVL_videos\\ORIG\\BricksLeaves_1920x1080_60fps.mp4",
  "output": "C:\\Users\\Peter\\Desktop\\stuff\\MIUN\\quantitative_research\\video_compression\\compressed_videos\\BVI-HD\\h264\\4\\BricksLeaves_1920x1080_60fps_h264.mp4",
  "codec": "h264",
  "ok": "Input #0, mov,mp4,m4a,3gp,3g2,mj2, from 'C:\\Users\\Peter\\Desktop\\stuff\\MIUN\\quantitative_research\\video_compression\\videos\\BVI-HD\\BVI-HD_CDVL_videos\\ORIG\\BricksLeaves_1920x1080_60fps.mp4':\n  Metadata:\n    major_brand     : isom\n    minor_version   : 512\n    compatible_brands: isomiso2avc1mp41\n    encoder         : Lavf54.28.101\n  Duration: 00:00:05.00, start: 0.000000, bitrate: 524627 kb/s\n  Stream #0:0[0x1](und): Video: h264 (High 4:4:4 Predictive) (avc1 / 0x31637661), yuv420p(progressive), 1920x1080, 524622 kb/s, 60 fps, 60 tbr, 60 tbn (default)\n    Metadata:\n      handler_name    : VideoHandler\n      vendor_id       : [0][0][0][0]\n[out#0/mp4 @ 0000023c0dba9b40] Codec AVOption b:a (set bitrate (in bits/s)) has not been used for any stream. The most likely reason is either wrong type (e.g. a video option with no video streams) or that it is a private option of some decoder which was not actually used for any stream.\nStream mapping:\n  Stream #0:0 -> #0:0 (h264 (native) -> h264 (libx264))\nPress [q] to stop, [?] for help\n[libx264 @ 0000023c0e760300] using cpu capabilities: MMX2 SSE2Fast SSSE3 SSE4.2 AVX FMA3 BMI2 AVX2\n[libx264 @ 0000023c0e760300] profile High, level 5.0, 4:2:0, 8-bit\n[libx264 @ 0000023c0e760300] 264 - core 165 r3222 b35605a - H.264/MPEG-4 AVC codec - Copyleft 2003-2025 - http://www.videolan.org/x264.html - options: cabac=1 ref=5 deblock=1:0:0 analyse=0x3:0x113 me=hex subme=8 psy=1 psy_rd=1.00:0.00 mixed_ref=1 me_range=16 chroma_me=1 trellis=2 8x8dct=1 cqm=0 deadzone=21,11 fast_pskip=1 chroma_qp_offset=-2 threads=18 lookahead_threads=3 sliced_threads=0 nr=0 decimate=1 interlaced=0 bluray_compat=0 constrained_intra=0 bframes=3 b_pyramid=2 b_adapt=1 b_bias=0 direct=3 weightb=1 open_gop=0 weightp=2 keyint=250 keyint_min=25 scenecut=40 intra_refresh=0 rc_lookahead=50 rc=cbr mbtree=1 bitrate=4000 ratetol=1.0 qcomp=0.60 qpmin=0 qpmax=69 qpstep=4 vbv_maxrate=4000 vbv_bufsize=4000 nal_hrd=none filler=0 ip_ratio=1.40 aq=1:1.00\nOutput #0, mp4, to 'C:\\Users\\Peter\\Desktop\\stuff\\MIUN\\quantitative_research\\video_compression\\compressed_videos\\BVI-HD\\h264\\4\\BricksLeaves_1920x1080_60fps_h264.mp4':\n  Metadata:\n    major_brand     : isom\n    minor_version   : 512\n    compatible_brands: isomiso2avc1mp41\n    encoder         : Lavf62.3.100\n  Stream #0:0(und): Video: h264 (avc1 / 0x31637661), yuv420p(tv, progressive), 1920x1080, q=2-31, 4000 kb/s, 60 fps, 15360 tbn (default)\n    Metadata:\n      encoder         : Lavc62.11.100 libx264\n      handler_name    : VideoHandler\n      vendor_id       : [0][0][0][0]\n    Side data:\n      cpb: bitrate max/min/avg: 4000000/0/4000000 buffer size: 4000000 vbv_delay: N/A\nframe=    0 fps=0.0 q=0.0 size=       0KiB time=N/A bitrate=N/A speed=N/A elapsed=0:00:01.23    \nframe=    0 fps=0.0 q=0.0 size=       0KiB time=N/A bitrate=N/A speed=N/A elapsed=0:00:01.81    \nframe=    0 fps=0.0 q=0.0 size=       0KiB time=N/A bitrate=N/A speed=N/A elapsed=0:00:02.46    \nframe=   16 fps=5.2 q=39.0 size=       0KiB time=00:00:00.16 bitrate=   2.3kbits/s speed=0.0541x elapsed=0:00:03.08    \nframe=   44 fps= 12 q=38.0 size=     256KiB time=00:00:00.63 bitrate=3311.9kbits/s speed=0.171x elapsed=0:00:03.70    \nframe=   66 fps= 15 q=38.0 size=     256KiB time=00:00:01.06 bitrate=1966.4kbits/s speed=0.246x elapsed=0:00:04.32    \nframe=   85 fps= 17 q=38.0 size=     512KiB time=00:00:01.38 bitrate=3032.3kbits/s speed=0.281x elapsed=0:00:04.91    \nframe=  110 fps= 20 q=38.0 size=     768KiB time=00:00:01.80 bitrate=3495.5kbits/s speed=0.327x elapsed=0:00:05.49    \nframe=  137 fps= 22 q=38.0 size=     768KiB time=00:00:02.13 bitrate=2949.3kbits/s speed=0.347x elapsed=0:00:06.14    \nframe=  152 fps= 22 q=38.0 size=    1024KiB time=00:00:02.50 bitrate=3355.6kbits/s speed=0.363x elapsed=0:00:06.87    \nframe=  173 fps= 23 q=38.0 size=    1024KiB time=00:00:02.78 bitrate=3014.0kbits/s speed=0.375x elapsed=0:00:07.43    \nframe=  189 fps= 23 q=38.0 size=    1280KiB time=00:00:03.06 bitrate=3419.4kbits/s speed=0.381x elapsed=0:00:08.05    \nframe=  212 fps= 25 q=40.0 size=    1280KiB time=00:00:03.43 bitrate=3054.2kbits/s speed=0.397x elapsed=0:00:08.63    \nframe=  225 fps= 24 q=41.0 size=    1536KiB time=00:00:03.68 bitrate=3416.3kbits/s speed=0.398x elapsed=0:00:09.25    \nframe=  233 fps= 24 q=42.0 size=    1536KiB time=00:00:03.85 bitrate=3268.4kbits/s speed=0.39x elapsed=0:00:09.87    \nframe=  256 fps= 25 q=45.0 size=    1792KiB time=00:00:04.18 bitrate=3509.3kbits/s speed=0.401x elapsed=0:00:10.42    \nframe=  285 fps= 26 q=-1.0 size=    2048KiB time=00:00:04.66 bitrate=3595.2kbits/s speed=0.424x elapsed=0:00:11.01    \n[mp4 @ 0000023c0dc37ac0] Starting second pass: moving the moov atom to the beginning of the file\n[out#0/mp4 @ 0000023c0dba9b40] video:2431KiB audio:0KiB subtitle:0KiB other streams:0KiB global headers:0KiB muxing overhead: 0.180219%\nframe=  300 fps= 26 q=-1.0 Lsize=    2436KiB time=00:00:04.96 bitrate=4017.5kbits/s speed=0.435x elapsed=0:00:11.42    \n[libx264 @ 0000023c0e760300] frame I:2     Avg QP:36.57  size:147176\n[libx264 @ 0000023c0e760300] frame P:76    Avg QP:38.10  size: 13099\n[libx264 @ 0000023c0e760300] frame B:222   Avg QP:43.92  size:  5402\n[libx264 @ 0000023c0e760300] consecutive B-frames:  1.3%  0.0%  0.0% 98.7%\n[libx264 @ 0000023c0e760300] mb I  I16..4:  1.9% 89.7%  8.4%\n[libx264 @ 0000023c0e760300] mb P  I16..4:  0.8%  3.5%  0.1%  P16..4: 22.4%  3.9%  3.5%  0.0%  0.0%    skip:65.8%\n[libx264 @ 0000023c0e760300] mb B  I16..4:  0.1%  0.7%  0.0%  B16..8: 15.2%  2.5%  0.5%  direct: 2.1%  skip:78.9%  L0:51.7% L1:44.4% BI: 3.9%\n[libx264 @ 0000023c0e760300] 8x8 transform intra:83.6% inter:89.4%\n[libx264 @ 0000023c0e760300] direct mvs  spatial:95.5% temporal:4.5%\n[libx264 @ 0000023c0e760300] coded y,uvDC,uvAC intra: 61.1% 55.8% 10.0% inter: 6.4% 5.2% 0.0%\n[libx264 @ 0000023c0e760300] i16 v,h,dc,p: 18% 26% 10% 46%\n[libx264 @ 0000023c0e760300] i8 v,h,dc,ddl,ddr,vr,hd,vl,hu:  8%  9%  8% 11% 12% 10% 15% 13% 15%\n[libx264 @ 0000023c0e760300] i4 v,h,dc,ddl,ddr,vr,hd,vl,hu:  5%  7%  3% 11% 12% 12% 17% 12% 20%\n[libx264 @ 0000023c0e760300] i8c dc,h,v,p: 63% 18% 11%  7%\n[libx264 @ 0000023c0e760300] Weighted P-Frames: Y:0.0% UV:0.0%\n[libx264 @ 0000023c0e760300] ref P L0: 41.6% 10.3% 22.4% 12.7% 12.9%\n[libx264 @ 0000023c0e760300] ref B L0: 65.3% 19.6% 11.4%  3.7%\n[libx264 @ 0000023c0e760300] ref B L1: 86.9% 13.1%\n[libx264 @ 0000023c0e760300] kb/s:3982.37\n",
  "seconds": 12.231761693954468,
  "probe_out": {}
}